<svg xmlns="http://www.w3.org/2000/svg" xmlns:xlink="http://www.w3.org/1999/xlink" width="1367.274" height="655" viewBox="0 0 1367.274 655">
  <defs>
    <linearGradient id="linear-gradient" x1="0.721" y1="0.417" x2="0.947" gradientUnits="objectBoundingBox">
      <stop offset="0" stop-color="#1f1f1e"/>
      <stop offset="1" stop-color="#1f1f1e" stop-opacity="0"/>
    </linearGradient>
  </defs>
  <g id="Group_212" data-name="Group 212" transform="translate(0 -109)">
    <rect id="Rectangle_2092" data-name="Rectangle 2092" width="1367" height="655" transform="translate(0 109)" fill="#1f1f1e"/>
    <g id="Group_209" data-name="Group 209" transform="translate(832 110.516)" opacity="0.381">
      <path id="Path_76" data-name="Path 76" d="M56.246,28.114V56.229H0V0H28.114V28.114Z" transform="translate(534.274 84.344) rotate(180)" fill="#1f1f1e" stroke="#fff" stroke-width="2"/>
      <rect id="Rectangle_2096" data-name="Rectangle 2096" width="84.36" height="28.114" transform="translate(84.36 140.555) rotate(180)" fill="#1f1f1e" stroke="#fff" stroke-width="2"/>
      <rect id="Rectangle_2097" data-name="Rectangle 2097" width="84.36" height="28.114" transform="translate(84.36 140.555) rotate(180)" fill="#1f1f1e" stroke="#fff" stroke-miterlimit="10" stroke-width="2"/>
      <path id="Path_80" data-name="Path 80" d="M56.229,0V56.229H28.114V28.114H0V0Z" transform="translate(196.72 224.899) rotate(180)" fill="#1f1f1e" stroke="#fff" stroke-width="2"/>
      <path id="Path_83" data-name="Path 83" d="M56.246,28.114V84.343H28.131V56.229H0V0H28.131V28.114Z" transform="translate(140.491 224.899) rotate(180)" fill="#1f1f1e" stroke="#fff" stroke-miterlimit="10" stroke-width="2"/>
      <rect id="Rectangle_2100" data-name="Rectangle 2100" width="28.114" height="28.114" transform="translate(84.36 289.899) rotate(180)" fill="#1f1f1e" stroke="#fff" stroke-miterlimit="10" stroke-width="2"/>
      <path id="Path_84" data-name="Path 84" d="M84.36,0V28.114H56.229V56.229H0V28.114H28.114V0Z" transform="translate(112.474 112.441) rotate(180)" fill="#1f1f1e" stroke="#fff" stroke-width="2"/>
      <path id="Path_85" data-name="Path 85" d="M84.36,0V28.114H56.229V56.229H0V28.114H28.114V0Z" transform="translate(112.474 112.441) rotate(180)" fill="#1f1f1e" stroke="#fff" stroke-miterlimit="10" stroke-width="2"/>
      <rect id="Rectangle_2102" data-name="Rectangle 2102" width="28.131" height="84.343" transform="translate(338.08 281.996) rotate(180)" fill="#1f1f1e" stroke="#fff" stroke-miterlimit="10" stroke-width="2"/>
      <rect id="Rectangle_2104" data-name="Rectangle 2104" width="56.246" height="28.114" transform="translate(534.274 28.115) rotate(180)" fill="#1f1f1e" stroke="#fff" stroke-width="2"/>
      <path id="Path_86" data-name="Path 86" d="M56.229,0V56.229H28.114V28.114H0V0Z" transform="translate(309.308 224.882) rotate(180)" fill="#1f1f1e" stroke="#fff" stroke-width="2"/>
      <rect id="Rectangle_2160" data-name="Rectangle 2160" width="84.18" height="28.114" transform="translate(506.66 84.376) rotate(90)" fill="#1f1f1e" stroke="#fff" stroke-miterlimit="10" stroke-width="2"/>
      <rect id="Rectangle_2109" data-name="Rectangle 2109" width="28.114" height="28.114" transform="translate(309.308 196.768) rotate(180)" fill="#1f1f1e" stroke="#fff" stroke-width="2"/>
      <rect id="Rectangle_2110" data-name="Rectangle 2110" width="28.114" height="28.114" transform="translate(337.308 196.768) rotate(180)" fill="#1f1f1e" stroke="#fff" stroke-miterlimit="10" stroke-width="2"/>
      <rect id="Rectangle_2111" data-name="Rectangle 2111" width="28.114" height="28.098" transform="translate(337.423 168.653) rotate(180)" fill="#1f1f1e" stroke="#fff" stroke-width="2"/>
      <rect id="Rectangle_2152" data-name="Rectangle 2152" width="28.114" height="28.098" transform="translate(56.423 57.653) rotate(180)" fill="#1f1f1e" stroke="#fff" stroke-miterlimit="10" stroke-width="2"/>
      <rect id="Rectangle_2113" data-name="Rectangle 2113" width="56.229" height="28.098" transform="translate(309.308 168.653) rotate(180)" fill="#1f1f1e" stroke="#fff" stroke-width="2"/>
      <rect id="Rectangle_2115" data-name="Rectangle 2115" width="28.131" height="28.098" transform="translate(253.08 168.653) rotate(180)" fill="#1f1f1e" stroke="#fff" stroke-width="2"/>
      <rect id="Rectangle_2116" data-name="Rectangle 2116" width="28.131" height="28.098" transform="translate(253.08 168.653) rotate(180)" fill="#1f1f1e" stroke="#fff" stroke-miterlimit="10" stroke-width="2"/>
      <path id="Path_88" data-name="Path 88" d="M56.229,28.1V84.326H28.114V56.212H0V0H28.114V28.1Z" transform="translate(224.948 112.309) rotate(180)" fill="#1f1f1e" stroke="#fff" stroke-width="2"/>
      <path id="Path_119" data-name="Path 119" d="M56.229,28.1V84.326H28.114V56.212H0V0H28.114V28.1Z" transform="translate(393.948 225.309) rotate(180)" fill="#1f1f1e" stroke="#fff" stroke-miterlimit="10" stroke-width="2"/>
      <path id="Path_91" data-name="Path 91" d="M56.246,0V56.229H28.114V28.114H0V0Z" transform="translate(478.036 168.556) rotate(180)" fill="#1f1f1e" stroke="#fff" stroke-miterlimit="10" stroke-width="2"/>
      <path id="Path_92" data-name="Path 92" d="M56.246,0V56.229H28.114V28.114H0V0Z" transform="translate(224.965 140.556) rotate(180)" fill="#1f1f1e" stroke="#fff" stroke-width="2"/>
      <path id="Path_93" data-name="Path 93" d="M56.246,0V56.229H28.114V28.114H0V0Z" transform="translate(224.965 140.556) rotate(180)" fill="#1f1f1e" stroke="#fff" stroke-miterlimit="10" stroke-width="2"/>
      <path id="Path_94" data-name="Path 94" d="M56.246,28.114V56.229H0V0H28.114V28.114Z" transform="translate(393.668 140.556) rotate(180)" fill="#1f1f1e" stroke="#fff" stroke-width="2"/>
      <path id="Path_95" data-name="Path 95" d="M56.246,28.114V56.229H0V0H28.114V28.114Z" transform="translate(393.668 140.556) rotate(180)" fill="#1f1f1e" stroke="#fff" stroke-miterlimit="10" stroke-width="2"/>
      <path id="Path_120" data-name="Path 120" d="M56.246,28.114V56.229H0V0H28.114V28.114Z" transform="translate(478.036 140.605) rotate(180)" fill="#1f1f1e" stroke="#fff" stroke-miterlimit="10" stroke-width="2"/>
      <rect id="Rectangle_2117" data-name="Rectangle 2117" width="112.474" height="28.114" transform="translate(365.554 140.555) rotate(180)" fill="#1f1f1e" stroke="#fff" stroke-width="2"/>
      <rect id="Rectangle_2119" data-name="Rectangle 2119" width="28.131" height="28.114" transform="translate(253.08 140.555) rotate(180)" fill="#1f1f1e" stroke="#fff" stroke-width="2"/>
      <rect id="Rectangle_2120" data-name="Rectangle 2120" width="28.131" height="28.114" transform="translate(253.08 140.555) rotate(180)" fill="#1f1f1e" stroke="#fff" stroke-miterlimit="10" stroke-width="2"/>
      <path id="Path_96" data-name="Path 96" d="M56.246,0V56.229H28.114V28.114H0V0Z" transform="translate(168.72 140.556) rotate(180)" fill="#1f1f1e" stroke="#fff" stroke-width="2"/>
      <path id="Path_97" data-name="Path 97" d="M56.246,0V56.229H28.114V28.114H0V0Z" transform="translate(168.72 140.556) rotate(180)" fill="#1f1f1e" stroke="#fff" stroke-miterlimit="10" stroke-width="2"/>
      <path id="Path_99" data-name="Path 99" d="M56.246,28.114V56.229H0V0H28.114V28.114Z" transform="translate(422.029 112.441) rotate(180)" fill="#1f1f1e" stroke="#fff" stroke-miterlimit="10" stroke-width="2"/>
      <path id="Path_100" data-name="Path 100" d="M84.343,28.114V56.229H28.114V28.114H0V0H56.229V28.114Z" transform="translate(337.423 112.441) rotate(180)" fill="#1f1f1e" stroke="#fff" stroke-width="2"/>
      <path id="Path_101" data-name="Path 101" d="M84.343,28.114V56.229H28.114V28.114H0V0H56.229V28.114Z" transform="translate(337.423 112.441) rotate(180)" fill="#1f1f1e" stroke="#fff" stroke-miterlimit="10" stroke-width="2"/>
      <rect id="Rectangle_2121" data-name="Rectangle 2121" width="56.246" height="28.114" transform="translate(281.194 112.442) rotate(180)" fill="#1f1f1e" stroke="#fff" stroke-width="2"/>
      <rect id="Rectangle_2122" data-name="Rectangle 2122" width="56.246" height="28.114" transform="translate(281.194 112.442) rotate(180)" fill="#1f1f1e" stroke="#fff" stroke-miterlimit="10" stroke-width="2"/>
      <path id="Path_102" data-name="Path 102" d="M56.229,28.114V56.229H0V0H28.114V28.114Z" transform="translate(224.949 56.229) rotate(180)" fill="#1f1f1e" stroke="#fff" stroke-width="2"/>
      <rect id="Rectangle_2124" data-name="Rectangle 2124" width="28.114" height="28.114" transform="translate(168.72 112.442) rotate(180)" fill="#1f1f1e" stroke="#fff" stroke-width="2"/>
      <rect id="Rectangle_2125" data-name="Rectangle 2125" width="28.114" height="28.114" transform="translate(168.72 112.442) rotate(180)" fill="#1f1f1e" stroke="#fff" stroke-miterlimit="10" stroke-width="2"/>
      <rect id="Rectangle_2126" data-name="Rectangle 2126" width="112.474" height="28.114" transform="translate(421.783 84.327) rotate(180)" fill="#1f1f1e" stroke="#fff" stroke-width="2"/>
      <rect id="Rectangle_2127" data-name="Rectangle 2127" width="112.474" height="28.114" transform="translate(421.783 84.327) rotate(180)" fill="#1f1f1e" stroke="#fff" stroke-miterlimit="10" stroke-width="2"/>
      <rect id="Rectangle_2128" data-name="Rectangle 2128" width="28.131" height="84.326" transform="translate(253.08 84.327) rotate(180)" fill="#1f1f1e" stroke="#fff" stroke-width="2"/>
      <rect id="Rectangle_2129" data-name="Rectangle 2129" width="28.131" height="84.149" transform="translate(253.08 84.327) rotate(180)" fill="#1f1f1e" stroke="#fff" stroke-miterlimit="10" stroke-width="2"/>
      <rect id="Rectangle_2131" data-name="Rectangle 2131" width="28.114" height="84.326" transform="translate(168.72 84.327) rotate(180)" fill="#1f1f1e" stroke="#fff" stroke-width="2"/>
      <rect id="Rectangle_2132" data-name="Rectangle 2132" width="28.114" height="84.326" transform="translate(168.719 84.504) rotate(180)" fill="#1f1f1e" stroke="#fff" stroke-miterlimit="10" stroke-width="2"/>
      <path id="Path_104" data-name="Path 104" d="M56.246,28.114V84.326H28.131v-28.1H0V0H28.131V28.114Z" transform="translate(140.605 84.327) rotate(180)" fill="#1f1f1e" stroke="#fff" stroke-width="2"/>
      <path id="Path_105" data-name="Path 105" d="M56.246,28.114V84.326H28.131v-28.1H0V0H28.131V28.114Z" transform="translate(140.605 84.504) rotate(180)" fill="#1f1f1e" stroke="#fff" stroke-miterlimit="10" stroke-width="2"/>
      <rect id="Rectangle_2135" data-name="Rectangle 2135" width="28.114" height="28.114" transform="translate(478.028 56.212) rotate(180)" fill="#1f1f1e" stroke="#fff" stroke-width="2"/>
      <rect id="Rectangle_2136" data-name="Rectangle 2136" width="28.114" height="28.114" transform="translate(478.028 56.212) rotate(180)" fill="#1f1f1e" stroke="#fff" stroke-miterlimit="10" stroke-width="2"/>
      <path id="Path_106" data-name="Path 106" d="M56.246,0V56.212H0v-28.1H28.114V0Z" transform="translate(478.028 56.229) rotate(180)" fill="#1f1f1e" stroke="#fff" stroke-width="2"/>
      <rect id="Rectangle_2138" data-name="Rectangle 2138" width="112.474" height="28.114" transform="translate(421.783 56.212) rotate(180)" fill="#1f1f1e" stroke="#fff" stroke-width="2"/>
      <rect id="Rectangle_2139" data-name="Rectangle 2139" width="112.474" height="28.114" transform="translate(421.783 56.212) rotate(180)" fill="#1f1f1e" stroke="#fff" stroke-miterlimit="10" stroke-width="2"/>
      <rect id="Rectangle_2140" data-name="Rectangle 2140" width="28.114" height="28.098" transform="translate(421.783 28.098) rotate(180)" fill="#1f1f1e" stroke="#fff" stroke-width="2"/>
      <rect id="Rectangle_2141" data-name="Rectangle 2141" width="28.114" height="28.098" transform="translate(421.783 28.275) rotate(180)" fill="#1f1f1e" stroke="#fff" stroke-miterlimit="10" stroke-width="2"/>
      <rect id="Rectangle_2143" data-name="Rectangle 2143" width="56.246" height="28.098" transform="translate(393.668 28.098) rotate(180)" fill="#1f1f1e" stroke="#fff" stroke-width="2"/>
      <path id="Path_108" data-name="Path 108" d="M84.343,0V28.114H56.229v28.1H0v-28.1H28.114V0Z" transform="translate(337.72 56.212) rotate(180)" fill="#1f1f1e" stroke="#fff" stroke-width="2"/>
      <rect id="Rectangle_2147" data-name="Rectangle 2147" width="28.131" height="28.098" transform="translate(140.614 28.098) rotate(180)" fill="#1f1f1e" stroke="#fff" stroke-width="2"/>
      <rect id="Rectangle_2164" data-name="Rectangle 2164" width="28.131" height="28.098" transform="translate(281.211 28.098) rotate(180)" fill="#1f1f1e" stroke="#fff" stroke-width="2"/>
      <rect id="Rectangle_2107" data-name="Rectangle 2107" width="112.474" height="28.114" transform="translate(224.834 168.67) rotate(180)" fill="#1f1f1e" stroke="#fff" stroke-width="2"/>
      <path id="Path_121" data-name="Path 121" d="M56.229,28.1V84.326H28.114V56.212H0V0H28.114V28.1Z" transform="translate(478.258 252.882) rotate(180)" fill="#1f1f1e" stroke="#fff" stroke-miterlimit="10" stroke-width="2"/>
      <path id="Path_122" data-name="Path 122" d="M55.59,27.787V55.573H0V0H27.787V27.787Z" transform="translate(506.66 224.129) rotate(180)" fill="#1f1f1e" stroke="#fff" stroke-miterlimit="10" stroke-width="2"/>
    </g>
    <rect id="Rectangle_2161" data-name="Rectangle 2161" width="1367" height="655" transform="translate(0 109)" fill="url(#linear-gradient)"/>
  </g>
</svg>
