<svg xmlns="http://www.w3.org/2000/svg" xmlns:xlink="http://www.w3.org/1999/xlink" width="1368.376" height="363.771" viewBox="0 0 1368.376 363.771">
  <defs>
    <linearGradient id="linear-gradient" x1="0.674" y1="0.778" x2="1.04" gradientUnits="objectBoundingBox">
      <stop offset="0" stop-color="#1f1f1e"/>
      <stop offset="1" stop-color="#1f1f1e" stop-opacity="0"/>
    </linearGradient>
  </defs>
  <g id="Group_212" data-name="Group 212" transform="translate(2.376 -3594.229)">
    <rect id="Rectangle_90" data-name="Rectangle 90" width="1367" height="361" transform="translate(-1 3596)" fill="#1f1f1e"/>
    <g id="Group_211" data-name="Group 211" transform="translate(1639.318 7880.307) rotate(180)" opacity="0.231">
      <path id="Path_76" data-name="Path 76" d="M57.246,129.414v28.114H1V101.3H29.114v28.114Z" transform="translate(1641.694 4109.966) rotate(180)" fill="#1f1f1e" stroke="#fff" stroke-width="2"/>
      <rect id="Rectangle_2096" data-name="Rectangle 2096" width="84.36" height="28.114" transform="translate(1190.78 4064.878) rotate(180)" fill="#1f1f1e" stroke="#fff" stroke-width="2"/>
      <rect id="Rectangle_2097" data-name="Rectangle 2097" width="84.36" height="28.114" transform="translate(1190.78 4064.878) rotate(180)" fill="#1f1f1e" stroke="#fff" stroke-miterlimit="10" stroke-width="2"/>
      <rect id="Rectangle_2170" data-name="Rectangle 2170" width="84.36" height="28.114" transform="translate(1134.729 3980.402) rotate(180)" fill="#1f1f1e" stroke="#fff" stroke-miterlimit="10" stroke-width="2"/>
      <path id="Path_80" data-name="Path 80" d="M274.629,17.71V73.939H246.514V45.824H218.4V17.71Z" transform="translate(1493.539 4166.931) rotate(180)" fill="#1f1f1e" stroke="#fff" stroke-width="2"/>
      <path id="Path_83" data-name="Path 83" d="M308.086,45.824v56.229H279.971V73.939H251.84V17.71h28.131V45.824Z" transform="translate(1470.751 4166.931) rotate(180)" fill="#1f1f1e" stroke="#fff" stroke-miterlimit="10" stroke-width="2"/>
      <rect id="Rectangle_2100" data-name="Rectangle 2100" width="28.114" height="28.114" transform="translate(1190.78 4214.221) rotate(180)" fill="#1f1f1e" stroke="#fff" stroke-miterlimit="10" stroke-width="2"/>
      <rect id="Rectangle_2171" data-name="Rectangle 2171" width="28.114" height="28.114" transform="translate(966.843 3980.403) rotate(180)" fill="#1f1f1e" stroke="#fff" stroke-miterlimit="10" stroke-width="2"/>
      <rect id="Rectangle_2167" data-name="Rectangle 2167" width="28.114" height="28.114" transform="translate(1217.91 4092.993) rotate(180)" fill="#1f1f1e" stroke="#fff" stroke-miterlimit="10" stroke-width="2"/>
      <path id="Path_84" data-name="Path 84" d="M336.21,84.59V112.7H308.079v28.114H251.85V112.7h28.114V84.59Z" transform="translate(1470.744 4121.354) rotate(180)" fill="#1f1f1e" stroke="#fff" stroke-width="2"/>
      <path id="Path_85" data-name="Path 85" d="M336.21,84.59V112.7H308.079v28.114H251.85V112.7h28.114V84.59Z" transform="translate(1470.744 4121.354) rotate(180)" fill="#1f1f1e" stroke="#fff" stroke-miterlimit="10" stroke-width="2"/>
      <path id="Path_124" data-name="Path 124" d="M336.21,84.59V112.7H308.079v28.114H251.85V112.7h28.114V84.59Z" transform="translate(1358.27 4121.354) rotate(180)" fill="#1f1f1e" stroke="#fff" stroke-miterlimit="10" stroke-width="2"/>
      <rect id="Rectangle_2102" data-name="Rectangle 2102" width="28.131" height="84.343" transform="translate(1359.385 4206.318) rotate(180)" fill="#1f1f1e" stroke="#fff" stroke-miterlimit="10" stroke-width="2"/>
      <rect id="Rectangle_2104" data-name="Rectangle 2104" width="56.246" height="28.114" transform="translate(1640.694 3952.437) rotate(180)" fill="#1f1f1e" stroke="#fff" stroke-width="2"/>
      <path id="Path_86" data-name="Path 86" d="M191.019,17.72V73.949H162.9V45.834H134.79V17.72Z" transform="translate(1550.519 4166.924) rotate(180)" fill="#1f1f1e" stroke="#fff" stroke-width="2"/>
      <path id="Path_125" data-name="Path 125" d="M191.019,17.72V73.949H162.9V45.834H134.79V17.72Z" transform="translate(1184.965 4082.774) rotate(180)" fill="#1f1f1e" stroke="#fff" stroke-width="2"/>
      <rect id="Rectangle_2109" data-name="Rectangle 2109" width="28.114" height="28.114" transform="translate(1415.729 4121.09) rotate(180)" fill="#1f1f1e" stroke="#fff" stroke-width="2"/>
      <rect id="Rectangle_2111" data-name="Rectangle 2111" width="28.114" height="28.098" transform="translate(1443.844 4092.975) rotate(180)" fill="#1f1f1e" stroke="#fff" stroke-width="2"/>
      <rect id="Rectangle_2152" data-name="Rectangle 2152" width="28.114" height="28.098" transform="translate(1162.844 3981.975) rotate(180)" fill="#1f1f1e" stroke="#fff" stroke-miterlimit="10" stroke-width="2"/>
      <rect id="Rectangle_2113" data-name="Rectangle 2113" width="56.229" height="28.098" transform="translate(1415.729 4092.975) rotate(180)" fill="#1f1f1e" stroke="#fff" stroke-width="2"/>
      <rect id="Rectangle_2168" data-name="Rectangle 2168" width="56.229" height="28.098" transform="translate(1415.729 4177.318) rotate(180)" fill="#1f1f1e" stroke="#fff" stroke-width="2"/>
      <rect id="Rectangle_2115" data-name="Rectangle 2115" width="28.131" height="28.098" transform="translate(1359.5 4092.975) rotate(180)" fill="#1f1f1e" stroke="#fff" stroke-width="2"/>
      <rect id="Rectangle_2116" data-name="Rectangle 2116" width="28.131" height="28.098" transform="translate(1359.5 4092.975) rotate(180)" fill="#1f1f1e" stroke="#fff" stroke-miterlimit="10" stroke-width="2"/>
      <path id="Path_88" data-name="Path 88" d="M241.189,111.577v56.229H213.074V139.691H184.96V83.479h28.114v28.1Z" transform="translate(1516.329 4120.11) rotate(180)" fill="#1f1f1e" stroke="#fff" stroke-width="2"/>
      <path id="Path_91" data-name="Path 91" d="M90.7,67.87V124.1H62.564V95.984H34.45V67.87Z" transform="translate(1618.907 4203.452) rotate(180)" fill="#1f1f1e" stroke="#fff" stroke-miterlimit="10" stroke-width="2"/>
      <path id="Path_92" data-name="Path 92" d="M241.2,67.87V124.1H213.064V95.984H184.95V67.87Z" transform="translate(1516.335 4132.748) rotate(180)" fill="#1f1f1e" stroke="#fff" stroke-width="2"/>
      <path id="Path_93" data-name="Path 93" d="M241.2,67.87V124.1H213.064V95.984H184.95V67.87Z" transform="translate(1516.335 4132.748) rotate(180)" fill="#1f1f1e" stroke="#fff" stroke-miterlimit="10" stroke-width="2"/>
      <path id="Path_94" data-name="Path 94" d="M140.866,95.984V124.1H84.62V67.87h28.114V95.984Z" transform="translate(1584.709 4132.748) rotate(180)" fill="#1f1f1e" stroke="#fff" stroke-width="2"/>
      <path id="Path_95" data-name="Path 95" d="M140.866,95.984V124.1H84.62V67.87h28.114V95.984Z" transform="translate(1584.709 4132.748) rotate(180)" fill="#1f1f1e" stroke="#fff" stroke-miterlimit="10" stroke-width="2"/>
      <path id="Path_120" data-name="Path 120" d="M140.866,95.984V124.1H84.62V67.87h28.114V95.984Z" transform="translate(1669.077 4104.501) rotate(180)" fill="#1f1f1e" stroke="#fff" stroke-miterlimit="10" stroke-width="2"/>
      <rect id="Rectangle_2117" data-name="Rectangle 2117" width="112.474" height="28.114" transform="translate(1471.975 4064.878) rotate(180)" fill="#1f1f1e" stroke="#fff" stroke-width="2"/>
      <rect id="Rectangle_2119" data-name="Rectangle 2119" width="28.131" height="28.114" transform="translate(1359.5 4064.878) rotate(180)" fill="#1f1f1e" stroke="#fff" stroke-width="2"/>
      <rect id="Rectangle_2120" data-name="Rectangle 2120" width="28.131" height="28.114" transform="translate(1359.5 4064.878) rotate(180)" fill="#1f1f1e" stroke="#fff" stroke-miterlimit="10" stroke-width="2"/>
      <path id="Path_96" data-name="Path 96" d="M274.646,67.87V124.1H246.514V95.984H218.4V67.87Z" transform="translate(1493.54 4132.748) rotate(180)" fill="#1f1f1e" stroke="#fff" stroke-width="2"/>
      <path id="Path_97" data-name="Path 97" d="M274.646,67.87V124.1H246.514V95.984H218.4V67.87Z" transform="translate(1493.54 4132.748) rotate(180)" fill="#1f1f1e" stroke="#fff" stroke-miterlimit="10" stroke-width="2"/>
      <path id="Path_100" data-name="Path 100" d="M202.413,112.7v28.114H146.184V112.7H118.07V84.59H174.3V112.7Z" transform="translate(1561.913 4121.354) rotate(180)" fill="#1f1f1e" stroke="#fff" stroke-width="2"/>
      <path id="Path_101" data-name="Path 101" d="M202.413,112.7v28.114H146.184V112.7H118.07V84.59H174.3V112.7Z" transform="translate(1561.913 4121.354) rotate(180)" fill="#1f1f1e" stroke="#fff" stroke-miterlimit="10" stroke-width="2"/>
      <rect id="Rectangle_2121" data-name="Rectangle 2121" width="56.246" height="28.114" transform="translate(1387.615 4036.764) rotate(180)" fill="#1f1f1e" stroke="#fff" stroke-width="2"/>
      <rect id="Rectangle_2122" data-name="Rectangle 2122" width="56.246" height="28.114" transform="translate(1387.615 4036.764) rotate(180)" fill="#1f1f1e" stroke="#fff" stroke-miterlimit="10" stroke-width="2"/>
      <path id="Path_102" data-name="Path 102" d="M241.189,145.024v28.114H184.96V116.909h28.114v28.114Z" transform="translate(1516.329 4097.461) rotate(180)" fill="#1f1f1e" stroke="#fff" stroke-width="2"/>
      <rect id="Rectangle_2124" data-name="Rectangle 2124" width="28.114" height="28.114" transform="translate(1275.14 4036.764) rotate(180)" fill="#1f1f1e" stroke="#fff" stroke-width="2"/>
      <rect id="Rectangle_2125" data-name="Rectangle 2125" width="28.114" height="28.114" transform="translate(1275.14 4036.764) rotate(180)" fill="#1f1f1e" stroke="#fff" stroke-miterlimit="10" stroke-width="2"/>
      <rect id="Rectangle_2126" data-name="Rectangle 2126" width="112.474" height="28.114" transform="translate(1528.203 4008.649) rotate(180)" fill="#1f1f1e" stroke="#fff" stroke-width="2"/>
      <rect id="Rectangle_2127" data-name="Rectangle 2127" width="112.474" height="28.114" transform="translate(1528.203 4008.649) rotate(180)" fill="#1f1f1e" stroke="#fff" stroke-miterlimit="10" stroke-width="2"/>
      <rect id="Rectangle_2169" data-name="Rectangle 2169" width="112.474" height="28.114" transform="translate(1051.203 4008.649) rotate(180)" fill="#1f1f1e" stroke="#fff" stroke-miterlimit="10" stroke-width="2"/>
      <rect id="Rectangle_2128" data-name="Rectangle 2128" width="28.131" height="84.326" transform="translate(1359.5 4008.649) rotate(180)" fill="#1f1f1e" stroke="#fff" stroke-width="2"/>
      <rect id="Rectangle_2129" data-name="Rectangle 2129" width="28.131" height="84.149" transform="translate(1359.5 4008.649) rotate(180)" fill="#1f1f1e" stroke="#fff" stroke-miterlimit="10" stroke-width="2"/>
      <rect id="Rectangle_2131" data-name="Rectangle 2131" width="28.114" height="84.326" transform="translate(1275.14 4008.649) rotate(180)" fill="#1f1f1e" stroke="#fff" stroke-width="2"/>
      <rect id="Rectangle_2132" data-name="Rectangle 2132" width="28.114" height="84.326" transform="translate(1275.14 4008.826) rotate(180)" fill="#1f1f1e" stroke="#fff" stroke-miterlimit="10" stroke-width="2"/>
      <path id="Path_104" data-name="Path 104" d="M291.366,129.424v56.212H263.251v-28.1H235.12V101.31h28.131v28.114Z" transform="translate(1482.146 4109.959) rotate(180)" fill="#1f1f1e" stroke="#fff" stroke-width="2"/>
      <path id="Path_105" data-name="Path 105" d="M291.366,129.424v56.212H263.251v-28.1H235.12V101.31h28.131v28.114Z" transform="translate(1482.146 4110.136) rotate(180)" fill="#1f1f1e" stroke="#fff" stroke-miterlimit="10" stroke-width="2"/>
      <rect id="Rectangle_2135" data-name="Rectangle 2135" width="28.114" height="28.114" transform="translate(1584.448 3980.534) rotate(180)" fill="#1f1f1e" stroke="#fff" stroke-width="2"/>
      <rect id="Rectangle_2136" data-name="Rectangle 2136" width="28.114" height="28.114" transform="translate(1584.448 3980.534) rotate(180)" fill="#1f1f1e" stroke="#fff" stroke-miterlimit="10" stroke-width="2"/>
      <path id="Path_106" data-name="Path 106" d="M90.7,118.03v56.212H34.45v-28.1H62.564V118.03Z" transform="translate(1618.898 4098.581) rotate(180)" fill="#1f1f1e" stroke="#fff" stroke-width="2"/>
      <rect id="Rectangle_2138" data-name="Rectangle 2138" width="112.474" height="28.114" transform="translate(1528.203 3980.534) rotate(180)" fill="#1f1f1e" stroke="#fff" stroke-width="2"/>
      <rect id="Rectangle_2139" data-name="Rectangle 2139" width="112.474" height="28.114" transform="translate(1528.203 3980.534) rotate(180)" fill="#1f1f1e" stroke="#fff" stroke-miterlimit="10" stroke-width="2"/>
      <rect id="Rectangle_2140" data-name="Rectangle 2140" width="28.114" height="28.098" transform="translate(1528.203 3952.42) rotate(180)" fill="#1f1f1e" stroke="#fff" stroke-width="2"/>
      <rect id="Rectangle_2141" data-name="Rectangle 2141" width="28.114" height="28.098" transform="translate(1528.203 3952.598) rotate(180)" fill="#1f1f1e" stroke="#fff" stroke-miterlimit="10" stroke-width="2"/>
      <rect id="Rectangle_2143" data-name="Rectangle 2143" width="56.246" height="28.098" transform="translate(1500.089 3952.42) rotate(180)" fill="#1f1f1e" stroke="#fff" stroke-width="2"/>
      <path id="Path_108" data-name="Path 108" d="M202.413,118.03v28.114H174.3v28.1H118.07v-28.1h28.114V118.03Z" transform="translate(1562.21 4098.564) rotate(180)" fill="#1f1f1e" stroke="#fff" stroke-width="2"/>
      <rect id="Rectangle_2147" data-name="Rectangle 2147" width="28.131" height="28.098" transform="translate(1247.034 3952.42) rotate(180)" fill="#1f1f1e" stroke="#fff" stroke-width="2"/>
      <rect id="Rectangle_2164" data-name="Rectangle 2164" width="28.131" height="28.098" transform="translate(1387.631 3952.42) rotate(180)" fill="#1f1f1e" stroke="#fff" stroke-width="2"/>
      <rect id="Rectangle_2107" data-name="Rectangle 2107" width="112.474" height="28.114" transform="translate(1331.254 4092.993) rotate(180)" fill="#1f1f1e" stroke="#fff" stroke-width="2"/>
    </g>
    <path id="Path_123" data-name="Path 123" d="M0,0H1367V363.771H0Z" transform="translate(1366 3958) rotate(180)" fill="url(#linear-gradient)"/>
  </g>
</svg>
